<svg width="689" height="252" viewBox="0 0 689 252" fill="none" xmlns="http://www.w3.org/2000/svg">
<g clip-path="url(#clip0_0_4569)">
<circle opacity="0.308943" cx="708.749" cy="-20" r="146" transform="rotate(90 708.749 -20)" fill="url(#paint0_linear_0_4569)"/>
<circle opacity="0.308943" cx="416.749" cy="-20" r="146" transform="rotate(-180 416.749 -20)" fill="url(#paint1_linear_0_4569)"/>
<circle opacity="0.308943" cx="124.749" cy="-20" r="146" transform="rotate(-90 124.749 -20)" fill="url(#paint2_linear_0_4569)"/>
<circle opacity="0.308943" cx="708.749" cy="272" r="146" transform="rotate(90 708.749 272)" fill="url(#paint3_linear_0_4569)"/>
<circle opacity="0.308943" cx="416.749" cy="272" r="146" transform="rotate(-180 416.749 272)" fill="url(#paint4_linear_0_4569)"/>
</g>
<defs>
<linearGradient id="paint0_linear_0_4569" x1="562.749" y1="126" x2="854.749" y2="126" gradientUnits="userSpaceOnUse">
<stop stop-color="#5D0202" stop-opacity="0.01"/>
<stop offset="1" stop-color="#5D0202" stop-opacity="0.497569"/>
</linearGradient>
<linearGradient id="paint1_linear_0_4569" x1="270.749" y1="126" x2="562.749" y2="126" gradientUnits="userSpaceOnUse">
<stop stop-color="#5D0202" stop-opacity="0.01"/>
<stop offset="1" stop-color="#5D0202" stop-opacity="0.497569"/>
</linearGradient>
<linearGradient id="paint2_linear_0_4569" x1="-21.2511" y1="126" x2="270.749" y2="126" gradientUnits="userSpaceOnUse">
<stop stop-color="#5D0202" stop-opacity="0.01"/>
<stop offset="1" stop-color="#5D0202" stop-opacity="0.497569"/>
</linearGradient>
<linearGradient id="paint3_linear_0_4569" x1="562.749" y1="418" x2="854.749" y2="418" gradientUnits="userSpaceOnUse">
<stop stop-color="#5D0202" stop-opacity="0.01"/>
<stop offset="1" stop-color="#5D0202" stop-opacity="0.497569"/>
</linearGradient>
<linearGradient id="paint4_linear_0_4569" x1="270.749" y1="418" x2="562.749" y2="418" gradientUnits="userSpaceOnUse">
<stop stop-color="#5D0202" stop-opacity="0.01"/>
<stop offset="1" stop-color="#5D0202" stop-opacity="0.497569"/>
</linearGradient>
<clipPath id="clip0_0_4569">
<rect width="876" height="584" fill="white" transform="matrix(1 0 0 -1 -21.2511 418)"/>
</clipPath>
</defs>
</svg>
